<?xml version="1.0" encoding="UTF-8" standalone="no"?>
<svg
   xmlns:dc="http://purl.org/dc/elements/1.1/"
   xmlns:cc="http://creativecommons.org/ns#"
   xmlns:rdf="http://www.w3.org/1999/02/22-rdf-syntax-ns#"
   xmlns:svg="http://www.w3.org/2000/svg"
   xmlns="http://www.w3.org/2000/svg"
   xml:space="preserve"
   fill-rule="evenodd"
   stroke-linejoin="round"
   stroke-miterlimit="2"
   clip-rule="evenodd"
   viewBox="0 0 169.01199 169.013"
   version="1.1"
   id="svg52"
   width="169.01199"
   height="169.013"><metadata
   id="metadata58"><rdf:RDF><cc:Work
       rdf:about=""><dc:format>image/svg+xml</dc:format><dc:type
         rdf:resource="http://purl.org/dc/dcmitype/StillImage" /><dc:title></dc:title></cc:Work></rdf:RDF></metadata><defs
   id="defs56" />
  
  
  
  
  
  
  
  
  
  
  
  
  
  
  
  
  
  
  
  
  <path
   fill-opacity="0.5"
   d="m 149.197,62.096 a 68.1,68.1 0 0 1 3.656,22.09 c 0,37.716 -30.623,68.346 -68.347,68.346 -37.725,0 -68.347,-30.63 -68.347,-68.347 a 68.1,68.1 0 0 1 3.655,-22.09 c 31.246,8.647 57.501,35.808 64.692,67.426 7.19,-31.618 33.445,-58.779 64.691,-67.425 z"
   id="path42" />
  <path
   fill-opacity="0.5"
   d="m 130.261,88.557 a 48.172,48.172 0 0 1 2.586,15.626 c 0,26.68 -21.662,48.347 -48.347,48.347 -26.686,0 -48.348,-21.668 -48.348,-48.347 0,-5.47 0.91,-10.728 2.587,-15.626 22.102,6.116 40.674,25.33 45.76,47.695 5.087,-22.366 23.66,-41.579 45.762,-47.695 z"
   id="path44" />
  <path
   d="m 114.171,111.056 a 31.234,31.234 0 0 1 1.676,10.131 c 0,17.299 -14.045,31.348 -31.347,31.348 -17.302,0 -31.346,-14.05 -31.346,-31.348 0,-3.546 0.59,-6.955 1.677,-10.131 14.33,3.966 26.372,16.423 29.67,30.924 3.298,-14.501 15.34,-26.958 29.67,-30.924 z"
   id="path46" />
  <path
   d="M 84.506,0 C 37.871,0 0,37.871 0,84.507 c 0,46.636 37.871,84.506 84.506,84.506 46.635,0 84.506,-37.871 84.506,-84.506 C 169.012,37.872 131.141,0 84.506,0 Z m 0,7.012 c 42.77,0 77.494,34.723 77.494,77.494 0,42.77 -34.723,77.495 -77.494,77.495 -42.77,0 -77.494,-34.724 -77.494,-77.495 0,-42.77 34.723,-77.494 77.494,-77.494 z"
   id="path48" />
  <circle
   cx="84.501892"
   cy="62.000652"
   r="22.499889"
   id="circle50"
   style="stroke-width:1.93881" />
</svg>
